<svg width="84" height="84" viewBox="0 0 84 84" fill="none" xmlns="http://www.w3.org/2000/svg">
    <path fill-rule="evenodd" clip-rule="evenodd"
        d="M8 42.4835C8 26.7525 20.7525 14 36.4835 14H67.7606C72.1686 14 75.7419 17.5734 75.7419 21.9814H36.4835C25.1605 21.9814 15.9814 31.1605 15.9814 42.4835C15.9814 53.8066 25.1605 62.9857 36.4835 62.9857H50.2015C54.6095 62.9857 58.1829 66.5591 58.1829 70.9671H36.4835C20.7525 70.9671 8 58.2146 8 42.4835ZM36.6332 36.1483C33.0517 36.1483 30.1483 39.0517 30.1483 42.6332C30.1483 46.2147 33.0517 49.1181 36.6332 49.1181H54.3918C64.0543 49.1181 71.9245 56.792 72.2402 66.3778C72.2468 66.5765 72.2501 70.7668 72.2501 70.9671H64.2687C64.2687 70.7661 64.2627 66.5758 64.2509 66.3778C63.9414 61.2016 59.6456 57.0994 54.3918 57.0994H36.6332C28.6437 57.0994 22.1669 50.6227 22.1669 42.6332C22.1669 34.6437 28.6437 28.1669 36.6332 28.1669H67.7606C72.1685 28.1669 75.7419 31.7403 75.7419 36.1483H36.6332Z"
        fill="url(#paint0_linear_12_52)" />
    <defs>
        <linearGradient id="paint0_linear_12_52" x1="13.2877" y1="46.1749" x2="37.9302" y2="26.4709"
            gradientUnits="userSpaceOnUse">
            <stop stop-color="#67CCE7" />
            <stop offset="1" stop-color="#5F4B9F" />
        </linearGradient>
    </defs>
</svg>